:SAMPLES-PER-SECOND 30
:FULLY-SPECIFIED
:DEGREES
485
root  -34.4099 34.2871 5.31196 -172.616 42.8954 -176.298
RightUpLeg  -18.6793 -29.5077 9.04421
RightLeg  17.6018 -15.1874 -3.7098
RightFoot  1.22738 0.0068237 -0.0782568
RightToes  -11.6417 -0.0376371 -0.105311
Spine  -0.347807 -0.254142 2.54628
Spine1  -0.67977 -0.387895 5.81933
HEad  -50.5894 -6.82443 10.7023
LeftShoulder1  -1.94126e-019 -3.10601e-018 -2.51263e-017
LeftArm  18.0821 24.6448 -74.8463
LeftForeArm  126.734 -75.5038 -134.306
LeftHand  0.0348342 0.371687 -0.861729
RightShoulder  -4.96962e-017 0 -2.36833e-017
RightArm  16.5354 -17.0025 67.5891
RightForeArm  137.183 80.4381 111.468
RightHand  0.434554 2.51613 6.17978
LeftUpLeg  -6.15695 8.12782 1.04097
LeftLeg  22.6701 15.6765 5.30877
LeftFoot  -11.0597 -0.315754 -3.09899
LeftToes  -6.98909 1.49739e-006 1.00523e-007
486
root  -34.9476 34.2346 5.41611 -175.066 41.3713 -178.859
RightUpLeg  -21.0872 -31.5363 6.77373
RightLeg  22.2855 -14.5388 -4.82729
RightFoot  0.353652 0.000625366 0.176541
RightToes  -11.5021 -0.038322 -0.10524
Spine  -0.0205636 -0.456068 1.73121
Spine1  -0.0426869 -0.778876 4.16051
HEad  -50.8543 -7.5608 11.308
LeftShoulder1  -1.94126e-019 -3.10601e-018 -2.51263e-017
LeftArm  18.706 23.2482 -74.0391
LeftForeArm  127.127 -75.515 -134.343
LeftHand  0.0211814 0.352643 -0.537997
RightShoulder  -4.96962e-017 0 -2.36833e-017
RightArm  15.1245 -17.2132 69.5643
RightForeArm  134.404 80.6053 108.682
RightHand  0.461128 2.73988 6.36948
LeftUpLeg  -6.35745 5.38586 -1.51466
LeftLeg  22.716 16.8282 5.70044
LeftFoot  -10.2477 -0.292126 -3.09547
LeftToes  -5.75531 1.49739e-006 1.00523e-007
487
root  -35.443 34.1797 5.48789 -176.965 39.9618 179.076
RightUpLeg  -23.1268 -34.5155 4.91571
RightLeg  25.7999 -12.806 -5.14817
RightFoot  -0.0219722 -0.000818537 0.275926
RightToes  -11.6467 -0.0399447 -0.106508
Spine  0.273655 -0.522223 0.972476
Spine1  0.533671 -0.9056 2.62628
HEad  -51.238 -8.30107 11.5862
LeftShoulder1  -1.94126e-019 -3.10601e-018 -2.51263e-017
LeftArm  19.1532 22.4394 -73.0429
LeftForeArm  128.322 -75.1412 -135.789
LeftHand  0.00700873 0.325172 -0.203283
RightShoulder  -4.96962e-017 0 -2.36833e-017
RightArm  13.7119 -17.908 71.2999
RightForeArm  135.688 80.5829 109.495
RightHand  0.498064 3.17419 6.51126
LeftUpLeg  -6.10492 6.48334 -3.23508
LeftLeg  21.6013 14.5714 4.648
LeftFoot  -9.61983 -0.219618 -2.44794
LeftToes  -6.55814 1.49739e-006 1.00523e-007
488
root  -35.9215 34.1545 5.55394 -177.983 38.6624 177.688
RightUpLeg  -25.0204 -37.5755 3.80577
RightLeg  27.9936 -10.9924 -4.92702
RightFoot  0.45223 0.00101126 0.165461
RightToes  -12.7748 -0.044946 -0.116347
Spine  0.399069 -0.496958 0.441613
Spine1  0.774568 -0.852102 1.55958
HEad  -51.2685 -8.98133 11.1538
LeftShoulder1  -1.94126e-019 -3.10601e-018 -2.51263e-017
LeftArm  19.1733 22.2865 -72.2693
LeftForeArm  129.014 -74.9083 -136.64
LeftHand  0.0131844 -0.0412409 -0.279547
RightShoulder  -4.96962e-017 0 -2.36833e-017
RightArm  13.0567 -18.8674 72.0182
RightForeArm  138.061 80.3822 112.372
RightHand  0.471082 3.30667 6.04276
LeftUpLeg  -6.22063 7.32687 -4.64278
LeftLeg  20.6329 12.7691 3.85111
LeftFoot  -9.02737 -0.167579 -1.96102
LeftToes  -7.0048 1.49739e-006 1.00523e-007
489
root  -36.3757 34.1655 5.6289 -178.252 37.5812 176.896
RightUpLeg  -26.7584 -39.6036 3.33664
RightLeg  29.1889 -9.94004 -4.71361
RightFoot  1.54526 0.00803224 -0.0473696
RightToes  -14.098 -0.0510575 -0.127759
Spine  0.305537 -0.403922 0.16242
Spine1  0.585839 -0.670388 1.01161
HEad  -50.5924 -9.51328 10.031
LeftShoulder1  -1.94126e-019 -3.10601e-018 -2.51263e-017
LeftArm  18.3897 23.0353 -72.1432
LeftForeArm  129.008 -74.9886 -136.396
LeftHand  0.056749 -0.480735 -1.07858
RightShoulder  -4.96962e-017 0 -2.36833e-017
RightArm  13.4917 -19.7727 71.7061
RightForeArm  139.51 80.1341 115.007
RightHand  0.459258 3.33138 5.8668
LeftUpLeg  -6.73545 5.50117 -5.98442
LeftLeg  20.0417 13.5424 3.92952
LeftFoot  -8.54741 -0.1592 -1.96858
LeftToes  -5.76095 1.49739e-006 1.00523e-007
